<?xml version="1.0" encoding="UTF-8" standalone="no"?>
<!DOCTYPE svg PUBLIC "-//W3C//DTD SVG 1.1//EN"
 "http://www.w3.org/Graphics/SVG/1.1/DTD/svg11.dtd">
<!-- Generated by graphviz version 2.43.0 (0)
 -->
<!-- Title: G Pages: 1 -->
<svg width="312pt" height="292pt"
 viewBox="0.00 0.00 312.43 292.13" xmlns="http://www.w3.org/2000/svg" xmlns:xlink="http://www.w3.org/1999/xlink">
<g id="graph0" class="graph" transform="scale(1 1) rotate(0) translate(4 288.13)">
<title>G</title>
<polygon fill="white" stroke="transparent" points="-4,4 -4,-288.13 308.43,-288.13 308.43,4 -4,4"/>
<!-- node3 -->
<g id="node1" class="node">
<title>node3</title>
<ellipse fill="lightblue" stroke="black" cx="131.21" cy="-262.92" rx="21.43" ry="21.43"/>
<text text-anchor="middle" x="131.21" y="-257.92" font-family="Times,serif" font-size="20.00">/</text>
</g>
<!-- node1 -->
<g id="node2" class="node">
<title>node1</title>
<ellipse fill="lightblue" stroke="black" cx="81.21" cy="-182.37" rx="21.43" ry="21.43"/>
<text text-anchor="middle" x="81.21" y="-177.37" font-family="Times,serif" font-size="20.00">&#45;</text>
</g>
<!-- node3&#45;&gt;node1 -->
<g id="edge1" class="edge">
<title>node3&#45;&gt;node1</title>
<path fill="none" stroke="black" d="M120.12,-244.49C113.58,-234.22 105.18,-221.02 97.86,-209.52"/>
<polygon fill="black" stroke="black" points="100.6,-207.31 92.28,-200.75 94.7,-211.07 100.6,-207.31"/>
</g>
<!-- node5 -->
<g id="node5" class="node">
<title>node5</title>
<ellipse fill="lightblue" stroke="black" cx="182.21" cy="-182.37" rx="23.17" ry="23.17"/>
<text text-anchor="middle" x="182.21" y="-177.37" font-family="Times,serif" font-size="20.00">^</text>
</g>
<!-- node3&#45;&gt;node5 -->
<g id="edge6" class="edge">
<title>node3&#45;&gt;node5</title>
<path fill="none" stroke="black" d="M142.53,-244.49C148.92,-234.64 157.06,-222.12 164.29,-210.97"/>
<polygon fill="black" stroke="black" points="167.35,-212.7 169.86,-202.4 161.47,-208.89 167.35,-212.7"/>
</g>
<!-- node0 -->
<g id="node3" class="node">
<title>node0</title>
<ellipse fill="lightblue" stroke="black" cx="21.21" cy="-61.52" rx="21.43" ry="21.43"/>
<text text-anchor="middle" x="21.21" y="-56.52" font-family="Times,serif" font-size="20.00">x</text>
</g>
<!-- node1&#45;&gt;node0 -->
<g id="edge2" class="edge">
<title>node1&#45;&gt;node0</title>
<path fill="none" stroke="black" d="M71.82,-163.28C65.87,-151.77 58.04,-136.56 51.21,-123.04 45.75,-112.22 39.81,-100.27 34.66,-89.87"/>
<polygon fill="black" stroke="black" points="37.77,-88.24 30.2,-80.83 31.49,-91.34 37.77,-88.24"/>
</g>
<!-- node2 -->
<g id="node4" class="node">
<title>node2</title>
<ellipse fill="lightblue" stroke="black" cx="81.21" cy="-61.52" rx="21.43" ry="21.43"/>
<text text-anchor="middle" x="81.21" y="-56.52" font-family="Times,serif" font-size="20.00">y</text>
</g>
<!-- node1&#45;&gt;node2 -->
<g id="edge3" class="edge">
<title>node1&#45;&gt;node2</title>
<path fill="none" stroke="black" d="M81.21,-160.94C81.21,-142.32 81.21,-114.55 81.21,-93.25"/>
<polygon fill="black" stroke="black" points="84.71,-93.08 81.21,-83.08 77.71,-93.08 84.71,-93.08"/>
</g>
<!-- node4 -->
<g id="node6" class="node">
<title>node4</title>
<ellipse fill="lightblue" stroke="black" cx="182.21" cy="-61.52" rx="61.54" ry="61.54"/>
<text text-anchor="middle" x="182.21" y="-56.52" font-family="Times,serif" font-size="20.00">AbObA</text>
</g>
<!-- node5&#45;&gt;node4 -->
<g id="edge4" class="edge">
<title>node5&#45;&gt;node4</title>
<path fill="none" stroke="black" d="M182.21,-159.02C182.21,-151.46 182.21,-142.57 182.21,-133.3"/>
<polygon fill="black" stroke="black" points="185.71,-133.14 182.21,-123.14 178.71,-133.14 185.71,-133.14"/>
</g>
<!-- node6 -->
<g id="node7" class="node">
<title>node6</title>
<ellipse fill="lightblue" stroke="black" cx="283.21" cy="-61.52" rx="21.43" ry="21.43"/>
<text text-anchor="middle" x="283.21" y="-56.52" font-family="Times,serif" font-size="20.00">z</text>
</g>
<!-- node5&#45;&gt;node6 -->
<g id="edge5" class="edge">
<title>node5&#45;&gt;node6</title>
<path fill="none" stroke="black" d="M201.62,-168.85C217.09,-158.13 238.52,-141.52 253.21,-123.04 260.81,-113.48 267.19,-101.68 272.09,-91.05"/>
<polygon fill="black" stroke="black" points="275.37,-92.28 276.16,-81.71 268.95,-89.48 275.37,-92.28"/>
</g>
</g>
</svg>
