<?xml version="1.0" encoding="UTF-8" standalone="no"?>
<!DOCTYPE svg PUBLIC "-//W3C//DTD SVG 1.1//EN"
 "http://www.w3.org/Graphics/SVG/1.1/DTD/svg11.dtd">
<!-- Generated by graphviz version 2.43.0 (0)
 -->
<!-- Title: G Pages: 1 -->
<svg width="140pt" height="207pt"
 viewBox="0.00 0.00 140.43 207.28" xmlns="http://www.w3.org/2000/svg" xmlns:xlink="http://www.w3.org/1999/xlink">
<g id="graph0" class="graph" transform="scale(1 1) rotate(0) translate(4 203.28)">
<title>G</title>
<polygon fill="white" stroke="transparent" points="-4,4 -4,-203.28 136.43,-203.28 136.43,4 -4,4"/>
<!-- node3 -->
<g id="node1" class="node">
<title>node3</title>
<ellipse fill="lightblue" stroke="black" cx="81.21" cy="-178.07" rx="21.43" ry="21.43"/>
<text text-anchor="middle" x="81.21" y="-173.07" font-family="Times,serif" font-size="20.00">*</text>
</g>
<!-- node1 -->
<g id="node2" class="node">
<title>node1</title>
<ellipse fill="lightblue" stroke="black" cx="51.21" cy="-99.64" rx="21.43" ry="21.43"/>
<text text-anchor="middle" x="51.21" y="-94.64" font-family="Times,serif" font-size="20.00">&#45;</text>
</g>
<!-- node3&#45;&gt;node1 -->
<g id="edge1" class="edge">
<title>node3&#45;&gt;node1</title>
<path fill="none" stroke="black" d="M73.8,-158.17C70.34,-149.36 66.14,-138.67 62.31,-128.92"/>
<polygon fill="black" stroke="black" points="65.56,-127.61 58.65,-119.58 59.04,-130.17 65.56,-127.61"/>
</g>
<!-- node4 -->
<g id="node5" class="node">
<title>node4</title>
<ellipse fill="lightblue" stroke="black" cx="111.21" cy="-99.64" rx="21.43" ry="21.43"/>
<text text-anchor="middle" x="111.21" y="-94.64" font-family="Times,serif" font-size="20.00">e</text>
</g>
<!-- node3&#45;&gt;node4 -->
<g id="edge4" class="edge">
<title>node3&#45;&gt;node4</title>
<path fill="none" stroke="black" d="M88.63,-158.17C92.09,-149.36 96.28,-138.67 100.11,-128.92"/>
<polygon fill="black" stroke="black" points="103.38,-130.17 103.78,-119.58 96.87,-127.61 103.38,-130.17"/>
</g>
<!-- node0 -->
<g id="node3" class="node">
<title>node0</title>
<ellipse fill="lightblue" stroke="black" cx="21.21" cy="-21.21" rx="21.43" ry="21.43"/>
<text text-anchor="middle" x="21.21" y="-16.21" font-family="Times,serif" font-size="20.00">y</text>
</g>
<!-- node1&#45;&gt;node0 -->
<g id="edge2" class="edge">
<title>node1&#45;&gt;node0</title>
<path fill="none" stroke="black" d="M43.8,-79.75C40.34,-70.93 36.14,-60.25 32.31,-50.49"/>
<polygon fill="black" stroke="black" points="35.56,-49.18 28.65,-41.15 29.04,-51.74 35.56,-49.18"/>
</g>
<!-- node2 -->
<g id="node4" class="node">
<title>node2</title>
<ellipse fill="lightblue" stroke="black" cx="81.21" cy="-21.21" rx="21.43" ry="21.43"/>
<text text-anchor="middle" x="81.21" y="-16.21" font-family="Times,serif" font-size="20.00">x</text>
</g>
<!-- node1&#45;&gt;node2 -->
<g id="edge3" class="edge">
<title>node1&#45;&gt;node2</title>
<path fill="none" stroke="black" d="M58.63,-79.75C62.09,-70.93 66.28,-60.25 70.11,-50.49"/>
<polygon fill="black" stroke="black" points="73.38,-51.74 73.78,-41.15 66.87,-49.18 73.38,-51.74"/>
</g>
</g>
</svg>
