<?xml version="1.0" encoding="UTF-8" standalone="no"?>
<!DOCTYPE svg PUBLIC "-//W3C//DTD SVG 1.1//EN"
 "http://www.w3.org/Graphics/SVG/1.1/DTD/svg11.dtd">
<!-- Generated by graphviz version 2.43.0 (0)
 -->
<!-- Title: G Pages: 1 -->
<svg width="122pt" height="99pt"
 viewBox="0.00 0.00 122.00 99.00" xmlns="http://www.w3.org/2000/svg" xmlns:xlink="http://www.w3.org/1999/xlink">
<g id="graph0" class="graph" transform="scale(1 1) rotate(0) translate(4 95)">
<title>G</title>
<polygon fill="white" stroke="transparent" points="-4,4 -4,-95 118,-95 118,4 -4,4"/>
<!-- node0 -->
<g id="node1" class="node">
<title>node0</title>
<polygon fill="lightblue" stroke="black" points="0,-0.5 0,-90.5 114,-90.5 114,-0.5 0,-0.5"/>
<text text-anchor="middle" x="35" y="-78.5" font-family="Times,serif" font-size="10.00">data_type:</text>
<text text-anchor="middle" x="35" y="-67.5" font-family="Times,serif" font-size="10.00"> NUM</text>
<polyline fill="none" stroke="black" points="70,-60.5 70,-90.5 "/>
<text text-anchor="middle" x="92" y="-73" font-family="Times,serif" font-size="10.00">0.000</text>
<polyline fill="none" stroke="black" points="0,-60.5 114,-60.5 "/>
<text text-anchor="middle" x="57" y="-48.5" font-family="Times,serif" font-size="10.00">prev:</text>
<text text-anchor="middle" x="57" y="-37.5" font-family="Times,serif" font-size="10.00">(nil)</text>
<polyline fill="none" stroke="black" points="0,-30.5 114,-30.5 "/>
<text text-anchor="middle" x="26.5" y="-18.5" font-family="Times,serif" font-size="10.00">left:</text>
<text text-anchor="middle" x="26.5" y="-7.5" font-family="Times,serif" font-size="10.00">(nil)</text>
<polyline fill="none" stroke="black" points="53,-0.5 53,-30.5 "/>
<text text-anchor="middle" x="83.5" y="-18.5" font-family="Times,serif" font-size="10.00">right:</text>
<text text-anchor="middle" x="83.5" y="-7.5" font-family="Times,serif" font-size="10.00">(nil)</text>
</g>
</g>
</svg>
