<?xml version="1.0" encoding="UTF-8" standalone="no"?>
<!DOCTYPE svg PUBLIC "-//W3C//DTD SVG 1.1//EN"
 "http://www.w3.org/Graphics/SVG/1.1/DTD/svg11.dtd">
<!-- Generated by graphviz version 2.43.0 (0)
 -->
<!-- Title: G Pages: 1 -->
<svg width="317pt" height="451pt"
 viewBox="0.00 0.00 317.43 451.17" xmlns="http://www.w3.org/2000/svg" xmlns:xlink="http://www.w3.org/1999/xlink">
<g id="graph0" class="graph" transform="scale(1 1) rotate(0) translate(4 447.17)">
<title>G</title>
<polygon fill="white" stroke="transparent" points="-4,4 -4,-447.17 313.43,-447.17 313.43,4 -4,4"/>
<!-- node5 -->
<g id="node1" class="node">
<title>node5</title>
<ellipse fill="lightblue" stroke="black" cx="135.21" cy="-421.96" rx="21.43" ry="21.43"/>
<text text-anchor="middle" x="135.21" y="-416.96" font-family="Times,serif" font-size="20.00">/</text>
</g>
<!-- node1 -->
<g id="node2" class="node">
<title>node1</title>
<ellipse fill="lightblue" stroke="black" cx="84.21" cy="-341.41" rx="21.43" ry="21.43"/>
<text text-anchor="middle" x="84.21" y="-336.41" font-family="Times,serif" font-size="20.00">&#45;</text>
</g>
<!-- node5&#45;&gt;node1 -->
<g id="edge1" class="edge">
<title>node5&#45;&gt;node1</title>
<path fill="none" stroke="black" d="M123.89,-403.52C117.11,-393.08 108.37,-379.61 100.82,-367.98"/>
<polygon fill="black" stroke="black" points="103.71,-366 95.32,-359.52 97.83,-369.81 103.71,-366"/>
</g>
<!-- node7 -->
<g id="node7" class="node">
<title>node7</title>
<ellipse fill="lightblue" stroke="black" cx="187.21" cy="-341.41" rx="23.17" ry="23.17"/>
<text text-anchor="middle" x="187.21" y="-336.41" font-family="Times,serif" font-size="20.00">^</text>
</g>
<!-- node5&#45;&gt;node7 -->
<g id="edge8" class="edge">
<title>node5&#45;&gt;node7</title>
<path fill="none" stroke="black" d="M146.5,-403.91C153.05,-394.01 161.46,-381.31 168.94,-370.02"/>
<polygon fill="black" stroke="black" points="172.07,-371.62 174.68,-361.35 166.24,-367.75 172.07,-371.62"/>
</g>
<!-- node0 -->
<g id="node3" class="node">
<title>node0</title>
<ellipse fill="lightblue" stroke="black" cx="21.21" cy="-220.55" rx="21.43" ry="21.43"/>
<text text-anchor="middle" x="21.21" y="-215.55" font-family="Times,serif" font-size="20.00">x</text>
</g>
<!-- node1&#45;&gt;node0 -->
<g id="edge2" class="edge">
<title>node1&#45;&gt;node0</title>
<path fill="none" stroke="black" d="M74.28,-322.61C67.89,-311.09 59.46,-295.75 52.21,-282.07 46.5,-271.29 40.34,-259.35 35.04,-248.95"/>
<polygon fill="black" stroke="black" points="38.09,-247.23 30.44,-239.9 31.85,-250.4 38.09,-247.23"/>
</g>
<!-- node3 -->
<g id="node4" class="node">
<title>node3</title>
<ellipse fill="lightblue" stroke="black" cx="84.21" cy="-220.55" rx="23.17" ry="23.17"/>
<text text-anchor="middle" x="84.21" y="-215.55" font-family="Times,serif" font-size="20.00">+</text>
</g>
<!-- node1&#45;&gt;node3 -->
<g id="edge5" class="edge">
<title>node1&#45;&gt;node3</title>
<path fill="none" stroke="black" d="M84.21,-319.98C84.21,-301.92 84.21,-275.27 84.21,-254.25"/>
<polygon fill="black" stroke="black" points="87.71,-254.15 84.21,-244.15 80.71,-254.15 87.71,-254.15"/>
</g>
<!-- node2 -->
<g id="node5" class="node">
<title>node2</title>
<ellipse fill="lightblue" stroke="black" cx="34.21" cy="-61.52" rx="21.43" ry="21.43"/>
<text text-anchor="middle" x="34.21" y="-56.52" font-family="Times,serif" font-size="20.00">y</text>
</g>
<!-- node3&#45;&gt;node2 -->
<g id="edge3" class="edge">
<title>node3&#45;&gt;node2</title>
<path fill="none" stroke="black" d="M77.37,-198.05C68.62,-170.58 53.44,-122.91 43.62,-92.05"/>
<polygon fill="black" stroke="black" points="46.87,-90.75 40.51,-82.28 40.2,-92.87 46.87,-90.75"/>
</g>
<!-- node4 -->
<g id="node6" class="node">
<title>node4</title>
<ellipse fill="lightblue" stroke="black" cx="135.21" cy="-61.52" rx="61.54" ry="61.54"/>
<text text-anchor="middle" x="135.21" y="-56.52" font-family="Times,serif" font-size="20.00">AbObA</text>
</g>
<!-- node3&#45;&gt;node4 -->
<g id="edge4" class="edge">
<title>node3&#45;&gt;node4</title>
<path fill="none" stroke="black" d="M91.2,-198.05C96.93,-180.4 105.37,-154.41 113.33,-129.9"/>
<polygon fill="black" stroke="black" points="116.71,-130.83 116.47,-120.24 110.05,-128.67 116.71,-130.83"/>
</g>
<!-- node6 -->
<g id="node8" class="node">
<title>node6</title>
<ellipse fill="lightblue" stroke="black" cx="187.21" cy="-220.55" rx="61.54" ry="61.54"/>
<text text-anchor="middle" x="187.21" y="-215.55" font-family="Times,serif" font-size="20.00">AbObA</text>
</g>
<!-- node7&#45;&gt;node6 -->
<g id="edge6" class="edge">
<title>node7&#45;&gt;node6</title>
<path fill="none" stroke="black" d="M187.21,-318.05C187.21,-310.5 187.21,-301.61 187.21,-292.34"/>
<polygon fill="black" stroke="black" points="190.71,-292.18 187.21,-282.18 183.71,-292.18 190.71,-292.18"/>
</g>
<!-- node8 -->
<g id="node9" class="node">
<title>node8</title>
<ellipse fill="lightblue" stroke="black" cx="288.21" cy="-220.55" rx="21.43" ry="21.43"/>
<text text-anchor="middle" x="288.21" y="-215.55" font-family="Times,serif" font-size="20.00">z</text>
</g>
<!-- node7&#45;&gt;node8 -->
<g id="edge7" class="edge">
<title>node7&#45;&gt;node8</title>
<path fill="none" stroke="black" d="M206.62,-327.89C222.09,-317.17 243.52,-300.56 258.21,-282.07 265.81,-272.51 272.19,-260.72 277.09,-250.09"/>
<polygon fill="black" stroke="black" points="280.37,-251.32 281.16,-240.75 273.95,-248.52 280.37,-251.32"/>
</g>
</g>
</svg>
