<?xml version="1.0" encoding="UTF-8" standalone="no"?>
<!DOCTYPE svg PUBLIC "-//W3C//DTD SVG 1.1//EN"
 "http://www.w3.org/Graphics/SVG/1.1/DTD/svg11.dtd">
<!-- Generated by graphviz version 2.43.0 (0)
 -->
<!-- Title: G Pages: 1 -->
<svg width="609pt" height="480pt"
 viewBox="0.00 0.00 609.00 480.00" xmlns="http://www.w3.org/2000/svg" xmlns:xlink="http://www.w3.org/1999/xlink">
<g id="graph0" class="graph" transform="scale(1 1) rotate(0) translate(4 476)">
<title>G</title>
<polygon fill="white" stroke="transparent" points="-4,4 -4,-476 605,-476 605,4 -4,4"/>
<!-- node5 -->
<g id="node1" class="node">
<title>node5</title>
<polygon fill="lightblue" stroke="black" points="219.5,-381.5 219.5,-471.5 421.5,-471.5 421.5,-381.5 219.5,-381.5"/>
<text text-anchor="middle" x="282.5" y="-459.5" font-family="Times,serif" font-size="10.00">data_type:</text>
<text text-anchor="middle" x="282.5" y="-448.5" font-family="Times,serif" font-size="10.00"> OP</text>
<polyline fill="none" stroke="black" points="345.5,-441.5 345.5,-471.5 "/>
<text text-anchor="middle" x="383.5" y="-454" font-family="Times,serif" font-size="10.00">/</text>
<polyline fill="none" stroke="black" points="219.5,-441.5 421.5,-441.5 "/>
<text text-anchor="middle" x="320.5" y="-429.5" font-family="Times,serif" font-size="10.00">prev:</text>
<text text-anchor="middle" x="320.5" y="-418.5" font-family="Times,serif" font-size="10.00">(nil)</text>
<polyline fill="none" stroke="black" points="219.5,-411.5 421.5,-411.5 "/>
<text text-anchor="middle" x="270" y="-399.5" font-family="Times,serif" font-size="10.00">left:</text>
<text text-anchor="middle" x="270" y="-388.5" font-family="Times,serif" font-size="10.00">0x606000000080</text>
<polyline fill="none" stroke="black" points="320.5,-381.5 320.5,-411.5 "/>
<text text-anchor="middle" x="371" y="-399.5" font-family="Times,serif" font-size="10.00">right:</text>
<text text-anchor="middle" x="371" y="-388.5" font-family="Times,serif" font-size="10.00">0x606000000260</text>
</g>
<!-- node1 -->
<g id="node2" class="node">
<title>node1</title>
<polygon fill="lightblue" stroke="black" points="109.5,-254.5 109.5,-344.5 311.5,-344.5 311.5,-254.5 109.5,-254.5"/>
<text text-anchor="middle" x="172.5" y="-332.5" font-family="Times,serif" font-size="10.00">data_type:</text>
<text text-anchor="middle" x="172.5" y="-321.5" font-family="Times,serif" font-size="10.00"> OP</text>
<polyline fill="none" stroke="black" points="235.5,-314.5 235.5,-344.5 "/>
<text text-anchor="middle" x="273.5" y="-327" font-family="Times,serif" font-size="10.00">&#45;</text>
<polyline fill="none" stroke="black" points="109.5,-314.5 311.5,-314.5 "/>
<text text-anchor="middle" x="210.5" y="-302.5" font-family="Times,serif" font-size="10.00">prev:</text>
<text text-anchor="middle" x="210.5" y="-291.5" font-family="Times,serif" font-size="10.00">0x606000000020</text>
<polyline fill="none" stroke="black" points="109.5,-284.5 311.5,-284.5 "/>
<text text-anchor="middle" x="160" y="-272.5" font-family="Times,serif" font-size="10.00">left:</text>
<text text-anchor="middle" x="160" y="-261.5" font-family="Times,serif" font-size="10.00">0x6060000000e0</text>
<polyline fill="none" stroke="black" points="210.5,-254.5 210.5,-284.5 "/>
<text text-anchor="middle" x="261" y="-272.5" font-family="Times,serif" font-size="10.00">right:</text>
<text text-anchor="middle" x="261" y="-261.5" font-family="Times,serif" font-size="10.00">0x606000000140</text>
</g>
<!-- node5&#45;&gt;node1 -->
<g id="edge1" class="edge">
<title>node5&#45;&gt;node1</title>
<path fill="none" stroke="black" d="M281.72,-381.43C273.42,-372 264.58,-361.96 256.06,-352.27"/>
<polygon fill="black" stroke="black" points="258.54,-349.79 249.3,-344.59 253.28,-354.41 258.54,-349.79"/>
</g>
<!-- node7 -->
<g id="node7" class="node">
<title>node7</title>
<polygon fill="lightblue" stroke="black" points="330,-254.5 330,-344.5 531,-344.5 531,-254.5 330,-254.5"/>
<text text-anchor="middle" x="391.5" y="-332.5" font-family="Times,serif" font-size="10.00">data_type:</text>
<text text-anchor="middle" x="391.5" y="-321.5" font-family="Times,serif" font-size="10.00"> OP</text>
<polyline fill="none" stroke="black" points="453,-314.5 453,-344.5 "/>
<text text-anchor="middle" x="492" y="-327" font-family="Times,serif" font-size="10.00">^</text>
<polyline fill="none" stroke="black" points="330,-314.5 531,-314.5 "/>
<text text-anchor="middle" x="430.5" y="-302.5" font-family="Times,serif" font-size="10.00">prev:</text>
<text text-anchor="middle" x="430.5" y="-291.5" font-family="Times,serif" font-size="10.00">0x606000000020</text>
<polyline fill="none" stroke="black" points="330,-284.5 531,-284.5 "/>
<text text-anchor="middle" x="380" y="-272.5" font-family="Times,serif" font-size="10.00">left:</text>
<text text-anchor="middle" x="380" y="-261.5" font-family="Times,serif" font-size="10.00">0x6060000002c0</text>
<polyline fill="none" stroke="black" points="430,-254.5 430,-284.5 "/>
<text text-anchor="middle" x="480.5" y="-272.5" font-family="Times,serif" font-size="10.00">right:</text>
<text text-anchor="middle" x="480.5" y="-261.5" font-family="Times,serif" font-size="10.00">0x606000000320</text>
</g>
<!-- node5&#45;&gt;node7 -->
<g id="edge8" class="edge">
<title>node5&#45;&gt;node7</title>
<path fill="none" stroke="black" d="M359.28,-381.43C367.58,-372 376.42,-361.96 384.94,-352.27"/>
<polygon fill="black" stroke="black" points="387.72,-354.41 391.7,-344.59 382.46,-349.79 387.72,-354.41"/>
</g>
<!-- node0 -->
<g id="node3" class="node">
<title>node0</title>
<polygon fill="lightblue" stroke="black" points="0,-127.5 0,-217.5 101,-217.5 101,-127.5 0,-127.5"/>
<text text-anchor="middle" x="37" y="-205.5" font-family="Times,serif" font-size="10.00">data_type:</text>
<text text-anchor="middle" x="37" y="-194.5" font-family="Times,serif" font-size="10.00"> VAR</text>
<polyline fill="none" stroke="black" points="74,-187.5 74,-217.5 "/>
<text text-anchor="middle" x="87.5" y="-200" font-family="Times,serif" font-size="10.00">x</text>
<polyline fill="none" stroke="black" points="0,-187.5 101,-187.5 "/>
<text text-anchor="middle" x="50.5" y="-175.5" font-family="Times,serif" font-size="10.00">prev:</text>
<text text-anchor="middle" x="50.5" y="-164.5" font-family="Times,serif" font-size="10.00">0x606000000080</text>
<polyline fill="none" stroke="black" points="0,-157.5 101,-157.5 "/>
<text text-anchor="middle" x="23.5" y="-145.5" font-family="Times,serif" font-size="10.00">left:</text>
<text text-anchor="middle" x="23.5" y="-134.5" font-family="Times,serif" font-size="10.00">(nil)</text>
<polyline fill="none" stroke="black" points="47,-127.5 47,-157.5 "/>
<text text-anchor="middle" x="74" y="-145.5" font-family="Times,serif" font-size="10.00">right:</text>
<text text-anchor="middle" x="74" y="-134.5" font-family="Times,serif" font-size="10.00">(nil)</text>
</g>
<!-- node1&#45;&gt;node0 -->
<g id="edge2" class="edge">
<title>node1&#45;&gt;node0</title>
<path fill="none" stroke="black" d="M154.09,-254.43C139.51,-243.04 123.79,-230.76 109.11,-219.29"/>
<polygon fill="black" stroke="black" points="111.11,-216.41 101.07,-213.01 106.8,-221.92 111.11,-216.41"/>
</g>
<!-- node3 -->
<g id="node4" class="node">
<title>node3</title>
<polygon fill="lightblue" stroke="black" points="119.5,-127.5 119.5,-217.5 321.5,-217.5 321.5,-127.5 119.5,-127.5"/>
<text text-anchor="middle" x="181" y="-205.5" font-family="Times,serif" font-size="10.00">data_type:</text>
<text text-anchor="middle" x="181" y="-194.5" font-family="Times,serif" font-size="10.00"> OP</text>
<polyline fill="none" stroke="black" points="242.5,-187.5 242.5,-217.5 "/>
<text text-anchor="middle" x="282" y="-200" font-family="Times,serif" font-size="10.00">+</text>
<polyline fill="none" stroke="black" points="119.5,-187.5 321.5,-187.5 "/>
<text text-anchor="middle" x="220.5" y="-175.5" font-family="Times,serif" font-size="10.00">prev:</text>
<text text-anchor="middle" x="220.5" y="-164.5" font-family="Times,serif" font-size="10.00">0x606000000080</text>
<polyline fill="none" stroke="black" points="119.5,-157.5 321.5,-157.5 "/>
<text text-anchor="middle" x="170" y="-145.5" font-family="Times,serif" font-size="10.00">left:</text>
<text text-anchor="middle" x="170" y="-134.5" font-family="Times,serif" font-size="10.00">0x6060000001a0</text>
<polyline fill="none" stroke="black" points="220.5,-127.5 220.5,-157.5 "/>
<text text-anchor="middle" x="271" y="-145.5" font-family="Times,serif" font-size="10.00">right:</text>
<text text-anchor="middle" x="271" y="-134.5" font-family="Times,serif" font-size="10.00">0x606000000200</text>
</g>
<!-- node1&#45;&gt;node3 -->
<g id="edge5" class="edge">
<title>node1&#45;&gt;node3</title>
<path fill="none" stroke="black" d="M214.03,-254.43C214.72,-245.75 215.46,-236.54 216.17,-227.58"/>
<polygon fill="black" stroke="black" points="219.66,-227.84 216.97,-217.59 212.69,-227.28 219.66,-227.84"/>
</g>
<!-- node2 -->
<g id="node5" class="node">
<title>node2</title>
<polygon fill="lightblue" stroke="black" points="105,-0.5 105,-90.5 206,-90.5 206,-0.5 105,-0.5"/>
<text text-anchor="middle" x="142" y="-78.5" font-family="Times,serif" font-size="10.00">data_type:</text>
<text text-anchor="middle" x="142" y="-67.5" font-family="Times,serif" font-size="10.00"> VAR</text>
<polyline fill="none" stroke="black" points="179,-60.5 179,-90.5 "/>
<text text-anchor="middle" x="192.5" y="-73" font-family="Times,serif" font-size="10.00">y</text>
<polyline fill="none" stroke="black" points="105,-60.5 206,-60.5 "/>
<text text-anchor="middle" x="155.5" y="-48.5" font-family="Times,serif" font-size="10.00">prev:</text>
<text text-anchor="middle" x="155.5" y="-37.5" font-family="Times,serif" font-size="10.00">0x606000000140</text>
<polyline fill="none" stroke="black" points="105,-30.5 206,-30.5 "/>
<text text-anchor="middle" x="128.5" y="-18.5" font-family="Times,serif" font-size="10.00">left:</text>
<text text-anchor="middle" x="128.5" y="-7.5" font-family="Times,serif" font-size="10.00">(nil)</text>
<polyline fill="none" stroke="black" points="152,-0.5 152,-30.5 "/>
<text text-anchor="middle" x="179" y="-18.5" font-family="Times,serif" font-size="10.00">right:</text>
<text text-anchor="middle" x="179" y="-7.5" font-family="Times,serif" font-size="10.00">(nil)</text>
</g>
<!-- node3&#45;&gt;node2 -->
<g id="edge3" class="edge">
<title>node3&#45;&gt;node2</title>
<path fill="none" stroke="black" d="M197.58,-127.43C192.92,-118.47 187.97,-108.95 183.17,-99.71"/>
<polygon fill="black" stroke="black" points="186.15,-97.85 178.43,-90.59 179.94,-101.08 186.15,-97.85"/>
</g>
<!-- node4 -->
<g id="node6" class="node">
<title>node4</title>
<polygon fill="lightblue" stroke="black" points="224,-0.5 224,-90.5 347,-90.5 347,-0.5 224,-0.5"/>
<text text-anchor="middle" x="259" y="-78.5" font-family="Times,serif" font-size="10.00">data_type:</text>
<text text-anchor="middle" x="259" y="-67.5" font-family="Times,serif" font-size="10.00"> VAR</text>
<polyline fill="none" stroke="black" points="294,-60.5 294,-90.5 "/>
<text text-anchor="middle" x="320.5" y="-73" font-family="Times,serif" font-size="10.00">AbObA</text>
<polyline fill="none" stroke="black" points="224,-60.5 347,-60.5 "/>
<text text-anchor="middle" x="285.5" y="-48.5" font-family="Times,serif" font-size="10.00">prev:</text>
<text text-anchor="middle" x="285.5" y="-37.5" font-family="Times,serif" font-size="10.00">0x606000000140</text>
<polyline fill="none" stroke="black" points="224,-30.5 347,-30.5 "/>
<text text-anchor="middle" x="253" y="-18.5" font-family="Times,serif" font-size="10.00">left:</text>
<text text-anchor="middle" x="253" y="-7.5" font-family="Times,serif" font-size="10.00">(nil)</text>
<polyline fill="none" stroke="black" points="282,-0.5 282,-30.5 "/>
<text text-anchor="middle" x="314.5" y="-18.5" font-family="Times,serif" font-size="10.00">right:</text>
<text text-anchor="middle" x="314.5" y="-7.5" font-family="Times,serif" font-size="10.00">(nil)</text>
</g>
<!-- node3&#45;&gt;node4 -->
<g id="edge4" class="edge">
<title>node3&#45;&gt;node4</title>
<path fill="none" stroke="black" d="M243.42,-127.43C248.08,-118.47 253.03,-108.95 257.83,-99.71"/>
<polygon fill="black" stroke="black" points="261.06,-101.08 262.57,-90.59 254.85,-97.85 261.06,-101.08"/>
</g>
<!-- node6 -->
<g id="node8" class="node">
<title>node6</title>
<polygon fill="lightblue" stroke="black" points="359,-127.5 359,-217.5 482,-217.5 482,-127.5 359,-127.5"/>
<text text-anchor="middle" x="394" y="-205.5" font-family="Times,serif" font-size="10.00">data_type:</text>
<text text-anchor="middle" x="394" y="-194.5" font-family="Times,serif" font-size="10.00"> VAR</text>
<polyline fill="none" stroke="black" points="429,-187.5 429,-217.5 "/>
<text text-anchor="middle" x="455.5" y="-200" font-family="Times,serif" font-size="10.00">AbObA</text>
<polyline fill="none" stroke="black" points="359,-187.5 482,-187.5 "/>
<text text-anchor="middle" x="420.5" y="-175.5" font-family="Times,serif" font-size="10.00">prev:</text>
<text text-anchor="middle" x="420.5" y="-164.5" font-family="Times,serif" font-size="10.00">0x606000000260</text>
<polyline fill="none" stroke="black" points="359,-157.5 482,-157.5 "/>
<text text-anchor="middle" x="388" y="-145.5" font-family="Times,serif" font-size="10.00">left:</text>
<text text-anchor="middle" x="388" y="-134.5" font-family="Times,serif" font-size="10.00">(nil)</text>
<polyline fill="none" stroke="black" points="417,-127.5 417,-157.5 "/>
<text text-anchor="middle" x="449.5" y="-145.5" font-family="Times,serif" font-size="10.00">right:</text>
<text text-anchor="middle" x="449.5" y="-134.5" font-family="Times,serif" font-size="10.00">(nil)</text>
</g>
<!-- node7&#45;&gt;node6 -->
<g id="edge6" class="edge">
<title>node7&#45;&gt;node6</title>
<path fill="none" stroke="black" d="M426.97,-254.43C426.28,-245.75 425.54,-236.54 424.83,-227.58"/>
<polygon fill="black" stroke="black" points="428.31,-227.28 424.03,-217.59 421.34,-227.84 428.31,-227.28"/>
</g>
<!-- node8 -->
<g id="node9" class="node">
<title>node8</title>
<polygon fill="lightblue" stroke="black" points="500,-127.5 500,-217.5 601,-217.5 601,-127.5 500,-127.5"/>
<text text-anchor="middle" x="537" y="-205.5" font-family="Times,serif" font-size="10.00">data_type:</text>
<text text-anchor="middle" x="537" y="-194.5" font-family="Times,serif" font-size="10.00"> VAR</text>
<polyline fill="none" stroke="black" points="574,-187.5 574,-217.5 "/>
<text text-anchor="middle" x="587.5" y="-200" font-family="Times,serif" font-size="10.00">z</text>
<polyline fill="none" stroke="black" points="500,-187.5 601,-187.5 "/>
<text text-anchor="middle" x="550.5" y="-175.5" font-family="Times,serif" font-size="10.00">prev:</text>
<text text-anchor="middle" x="550.5" y="-164.5" font-family="Times,serif" font-size="10.00">0x606000000260</text>
<polyline fill="none" stroke="black" points="500,-157.5 601,-157.5 "/>
<text text-anchor="middle" x="523.5" y="-145.5" font-family="Times,serif" font-size="10.00">left:</text>
<text text-anchor="middle" x="523.5" y="-134.5" font-family="Times,serif" font-size="10.00">(nil)</text>
<polyline fill="none" stroke="black" points="547,-127.5 547,-157.5 "/>
<text text-anchor="middle" x="574" y="-145.5" font-family="Times,serif" font-size="10.00">right:</text>
<text text-anchor="middle" x="574" y="-134.5" font-family="Times,serif" font-size="10.00">(nil)</text>
</g>
<!-- node7&#45;&gt;node8 -->
<g id="edge7" class="edge">
<title>node7&#45;&gt;node8</title>
<path fill="none" stroke="black" d="M472.81,-254.43C481.95,-244.91 491.69,-234.76 501.08,-224.98"/>
<polygon fill="black" stroke="black" points="503.77,-227.23 508.17,-217.59 498.72,-222.38 503.77,-227.23"/>
</g>
</g>
</svg>
