<?xml version="1.0" encoding="UTF-8" standalone="no"?>
<!DOCTYPE svg PUBLIC "-//W3C//DTD SVG 1.1//EN"
 "http://www.w3.org/Graphics/SVG/1.1/DTD/svg11.dtd">
<!-- Generated by graphviz version 2.43.0 (0)
 -->
<!-- Title: G Pages: 1 -->
<svg width="338pt" height="353pt"
 viewBox="0.00 0.00 338.00 353.00" xmlns="http://www.w3.org/2000/svg" xmlns:xlink="http://www.w3.org/1999/xlink">
<g id="graph0" class="graph" transform="scale(1 1) rotate(0) translate(4 349)">
<title>G</title>
<polygon fill="white" stroke="transparent" points="-4,4 -4,-349 334,-349 334,4 -4,4"/>
<!-- node3 -->
<g id="node1" class="node">
<title>node3</title>
<polygon fill="lightblue" stroke="black" points="93.5,-254.5 93.5,-344.5 295.5,-344.5 295.5,-254.5 93.5,-254.5"/>
<text text-anchor="middle" x="156" y="-332.5" font-family="Times,serif" font-size="10.00">data_type:</text>
<text text-anchor="middle" x="156" y="-321.5" font-family="Times,serif" font-size="10.00"> OP</text>
<polyline fill="none" stroke="black" points="218.5,-314.5 218.5,-344.5 "/>
<text text-anchor="middle" x="257" y="-327" font-family="Times,serif" font-size="10.00">*</text>
<polyline fill="none" stroke="black" points="93.5,-314.5 295.5,-314.5 "/>
<text text-anchor="middle" x="194.5" y="-302.5" font-family="Times,serif" font-size="10.00">prev:</text>
<text text-anchor="middle" x="194.5" y="-291.5" font-family="Times,serif" font-size="10.00">(nil)</text>
<polyline fill="none" stroke="black" points="93.5,-284.5 295.5,-284.5 "/>
<text text-anchor="middle" x="144" y="-272.5" font-family="Times,serif" font-size="10.00">left:</text>
<text text-anchor="middle" x="144" y="-261.5" font-family="Times,serif" font-size="10.00">0x606000000080</text>
<polyline fill="none" stroke="black" points="194.5,-254.5 194.5,-284.5 "/>
<text text-anchor="middle" x="245" y="-272.5" font-family="Times,serif" font-size="10.00">right:</text>
<text text-anchor="middle" x="245" y="-261.5" font-family="Times,serif" font-size="10.00">0x6060000001a0</text>
</g>
<!-- node1 -->
<g id="node2" class="node">
<title>node1</title>
<polygon fill="lightblue" stroke="black" points="8.5,-127.5 8.5,-217.5 210.5,-217.5 210.5,-127.5 8.5,-127.5"/>
<text text-anchor="middle" x="71.5" y="-205.5" font-family="Times,serif" font-size="10.00">data_type:</text>
<text text-anchor="middle" x="71.5" y="-194.5" font-family="Times,serif" font-size="10.00"> OP</text>
<polyline fill="none" stroke="black" points="134.5,-187.5 134.5,-217.5 "/>
<text text-anchor="middle" x="172.5" y="-200" font-family="Times,serif" font-size="10.00">&#45;</text>
<polyline fill="none" stroke="black" points="8.5,-187.5 210.5,-187.5 "/>
<text text-anchor="middle" x="109.5" y="-175.5" font-family="Times,serif" font-size="10.00">prev:</text>
<text text-anchor="middle" x="109.5" y="-164.5" font-family="Times,serif" font-size="10.00">0x606000000020</text>
<polyline fill="none" stroke="black" points="8.5,-157.5 210.5,-157.5 "/>
<text text-anchor="middle" x="59" y="-145.5" font-family="Times,serif" font-size="10.00">left:</text>
<text text-anchor="middle" x="59" y="-134.5" font-family="Times,serif" font-size="10.00">0x6060000000e0</text>
<polyline fill="none" stroke="black" points="109.5,-127.5 109.5,-157.5 "/>
<text text-anchor="middle" x="160" y="-145.5" font-family="Times,serif" font-size="10.00">right:</text>
<text text-anchor="middle" x="160" y="-134.5" font-family="Times,serif" font-size="10.00">0x606000000140</text>
</g>
<!-- node3&#45;&gt;node1 -->
<g id="edge1" class="edge">
<title>node3&#45;&gt;node1</title>
<path fill="none" stroke="black" d="M164.53,-254.43C158.31,-245.28 151.7,-235.55 145.29,-226.13"/>
<polygon fill="black" stroke="black" points="148,-223.89 139.48,-217.59 142.21,-227.83 148,-223.89"/>
</g>
<!-- node4 -->
<g id="node5" class="node">
<title>node4</title>
<polygon fill="lightblue" stroke="black" points="229,-127.5 229,-217.5 330,-217.5 330,-127.5 229,-127.5"/>
<text text-anchor="middle" x="266" y="-205.5" font-family="Times,serif" font-size="10.00">data_type:</text>
<text text-anchor="middle" x="266" y="-194.5" font-family="Times,serif" font-size="10.00"> VAR</text>
<polyline fill="none" stroke="black" points="303,-187.5 303,-217.5 "/>
<text text-anchor="middle" x="316.5" y="-200" font-family="Times,serif" font-size="10.00">e</text>
<polyline fill="none" stroke="black" points="229,-187.5 330,-187.5 "/>
<text text-anchor="middle" x="279.5" y="-175.5" font-family="Times,serif" font-size="10.00">prev:</text>
<text text-anchor="middle" x="279.5" y="-164.5" font-family="Times,serif" font-size="10.00">0x606000000020</text>
<polyline fill="none" stroke="black" points="229,-157.5 330,-157.5 "/>
<text text-anchor="middle" x="252.5" y="-145.5" font-family="Times,serif" font-size="10.00">left:</text>
<text text-anchor="middle" x="252.5" y="-134.5" font-family="Times,serif" font-size="10.00">(nil)</text>
<polyline fill="none" stroke="black" points="276,-127.5 276,-157.5 "/>
<text text-anchor="middle" x="303" y="-145.5" font-family="Times,serif" font-size="10.00">right:</text>
<text text-anchor="middle" x="303" y="-134.5" font-family="Times,serif" font-size="10.00">(nil)</text>
</g>
<!-- node3&#45;&gt;node4 -->
<g id="edge4" class="edge">
<title>node3&#45;&gt;node4</title>
<path fill="none" stroke="black" d="M224.47,-254.43C230.69,-245.28 237.3,-235.55 243.71,-226.13"/>
<polygon fill="black" stroke="black" points="246.79,-227.83 249.52,-217.59 241,-223.89 246.79,-227.83"/>
</g>
<!-- node0 -->
<g id="node3" class="node">
<title>node0</title>
<polygon fill="lightblue" stroke="black" points="0,-0.5 0,-90.5 101,-90.5 101,-0.5 0,-0.5"/>
<text text-anchor="middle" x="37" y="-78.5" font-family="Times,serif" font-size="10.00">data_type:</text>
<text text-anchor="middle" x="37" y="-67.5" font-family="Times,serif" font-size="10.00"> VAR</text>
<polyline fill="none" stroke="black" points="74,-60.5 74,-90.5 "/>
<text text-anchor="middle" x="87.5" y="-73" font-family="Times,serif" font-size="10.00">y</text>
<polyline fill="none" stroke="black" points="0,-60.5 101,-60.5 "/>
<text text-anchor="middle" x="50.5" y="-48.5" font-family="Times,serif" font-size="10.00">prev:</text>
<text text-anchor="middle" x="50.5" y="-37.5" font-family="Times,serif" font-size="10.00">0x606000000080</text>
<polyline fill="none" stroke="black" points="0,-30.5 101,-30.5 "/>
<text text-anchor="middle" x="23.5" y="-18.5" font-family="Times,serif" font-size="10.00">left:</text>
<text text-anchor="middle" x="23.5" y="-7.5" font-family="Times,serif" font-size="10.00">(nil)</text>
<polyline fill="none" stroke="black" points="47,-0.5 47,-30.5 "/>
<text text-anchor="middle" x="74" y="-18.5" font-family="Times,serif" font-size="10.00">right:</text>
<text text-anchor="middle" x="74" y="-7.5" font-family="Times,serif" font-size="10.00">(nil)</text>
</g>
<!-- node1&#45;&gt;node0 -->
<g id="edge2" class="edge">
<title>node1&#45;&gt;node0</title>
<path fill="none" stroke="black" d="M88.7,-127.43C84.47,-118.47 79.98,-108.95 75.62,-99.71"/>
<polygon fill="black" stroke="black" points="78.75,-98.14 71.31,-90.59 72.42,-101.13 78.75,-98.14"/>
</g>
<!-- node2 -->
<g id="node4" class="node">
<title>node2</title>
<polygon fill="lightblue" stroke="black" points="119,-0.5 119,-90.5 220,-90.5 220,-0.5 119,-0.5"/>
<text text-anchor="middle" x="156" y="-78.5" font-family="Times,serif" font-size="10.00">data_type:</text>
<text text-anchor="middle" x="156" y="-67.5" font-family="Times,serif" font-size="10.00"> VAR</text>
<polyline fill="none" stroke="black" points="193,-60.5 193,-90.5 "/>
<text text-anchor="middle" x="206.5" y="-73" font-family="Times,serif" font-size="10.00">x</text>
<polyline fill="none" stroke="black" points="119,-60.5 220,-60.5 "/>
<text text-anchor="middle" x="169.5" y="-48.5" font-family="Times,serif" font-size="10.00">prev:</text>
<text text-anchor="middle" x="169.5" y="-37.5" font-family="Times,serif" font-size="10.00">0x606000000080</text>
<polyline fill="none" stroke="black" points="119,-30.5 220,-30.5 "/>
<text text-anchor="middle" x="142.5" y="-18.5" font-family="Times,serif" font-size="10.00">left:</text>
<text text-anchor="middle" x="142.5" y="-7.5" font-family="Times,serif" font-size="10.00">(nil)</text>
<polyline fill="none" stroke="black" points="166,-0.5 166,-30.5 "/>
<text text-anchor="middle" x="193" y="-18.5" font-family="Times,serif" font-size="10.00">right:</text>
<text text-anchor="middle" x="193" y="-7.5" font-family="Times,serif" font-size="10.00">(nil)</text>
</g>
<!-- node1&#45;&gt;node2 -->
<g id="edge3" class="edge">
<title>node1&#45;&gt;node2</title>
<path fill="none" stroke="black" d="M130.65,-127.43C134.96,-118.47 139.52,-108.95 143.96,-99.71"/>
<polygon fill="black" stroke="black" points="147.16,-101.12 148.34,-90.59 140.85,-98.09 147.16,-101.12"/>
</g>
</g>
</svg>
