<?xml version="1.0" encoding="UTF-8" standalone="no"?>
<!DOCTYPE svg PUBLIC "-//W3C//DTD SVG 1.1//EN"
 "http://www.w3.org/Graphics/SVG/1.1/DTD/svg11.dtd">
<!-- Generated by graphviz version 2.43.0 (0)
 -->
<!-- Title: G Pages: 1 -->
<svg width="533pt" height="353pt"
 viewBox="0.00 0.00 533.00 353.00" xmlns="http://www.w3.org/2000/svg" xmlns:xlink="http://www.w3.org/1999/xlink">
<g id="graph0" class="graph" transform="scale(1 1) rotate(0) translate(4 349)">
<title>G</title>
<polygon fill="white" stroke="transparent" points="-4,4 -4,-349 529,-349 529,4 -4,4"/>
<!-- node3 -->
<g id="node1" class="node">
<title>node3</title>
<polygon fill="lightblue" stroke="black" points="155.5,-254.5 155.5,-344.5 357.5,-344.5 357.5,-254.5 155.5,-254.5"/>
<text text-anchor="middle" x="218.5" y="-332.5" font-family="Times,serif" font-size="10.00">data_type:</text>
<text text-anchor="middle" x="218.5" y="-321.5" font-family="Times,serif" font-size="10.00"> OP</text>
<polyline fill="none" stroke="black" points="281.5,-314.5 281.5,-344.5 "/>
<text text-anchor="middle" x="319.5" y="-327" font-family="Times,serif" font-size="10.00">/</text>
<polyline fill="none" stroke="black" points="155.5,-314.5 357.5,-314.5 "/>
<text text-anchor="middle" x="256.5" y="-302.5" font-family="Times,serif" font-size="10.00">prev:</text>
<text text-anchor="middle" x="256.5" y="-291.5" font-family="Times,serif" font-size="10.00">(nil)</text>
<polyline fill="none" stroke="black" points="155.5,-284.5 357.5,-284.5 "/>
<text text-anchor="middle" x="206" y="-272.5" font-family="Times,serif" font-size="10.00">left:</text>
<text text-anchor="middle" x="206" y="-261.5" font-family="Times,serif" font-size="10.00">0x606000000080</text>
<polyline fill="none" stroke="black" points="256.5,-254.5 256.5,-284.5 "/>
<text text-anchor="middle" x="307" y="-272.5" font-family="Times,serif" font-size="10.00">right:</text>
<text text-anchor="middle" x="307" y="-261.5" font-family="Times,serif" font-size="10.00">0x6060000001a0</text>
</g>
<!-- node1 -->
<g id="node2" class="node">
<title>node1</title>
<polygon fill="lightblue" stroke="black" points="45.5,-127.5 45.5,-217.5 247.5,-217.5 247.5,-127.5 45.5,-127.5"/>
<text text-anchor="middle" x="108.5" y="-205.5" font-family="Times,serif" font-size="10.00">data_type:</text>
<text text-anchor="middle" x="108.5" y="-194.5" font-family="Times,serif" font-size="10.00"> OP</text>
<polyline fill="none" stroke="black" points="171.5,-187.5 171.5,-217.5 "/>
<text text-anchor="middle" x="209.5" y="-200" font-family="Times,serif" font-size="10.00">&#45;</text>
<polyline fill="none" stroke="black" points="45.5,-187.5 247.5,-187.5 "/>
<text text-anchor="middle" x="146.5" y="-175.5" font-family="Times,serif" font-size="10.00">prev:</text>
<text text-anchor="middle" x="146.5" y="-164.5" font-family="Times,serif" font-size="10.00">0x606000000020</text>
<polyline fill="none" stroke="black" points="45.5,-157.5 247.5,-157.5 "/>
<text text-anchor="middle" x="96" y="-145.5" font-family="Times,serif" font-size="10.00">left:</text>
<text text-anchor="middle" x="96" y="-134.5" font-family="Times,serif" font-size="10.00">0x6060000000e0</text>
<polyline fill="none" stroke="black" points="146.5,-127.5 146.5,-157.5 "/>
<text text-anchor="middle" x="197" y="-145.5" font-family="Times,serif" font-size="10.00">right:</text>
<text text-anchor="middle" x="197" y="-134.5" font-family="Times,serif" font-size="10.00">0x606000000140</text>
</g>
<!-- node3&#45;&gt;node1 -->
<g id="edge1" class="edge">
<title>node3&#45;&gt;node1</title>
<path fill="none" stroke="black" d="M217.72,-254.43C209.42,-245 200.58,-234.96 192.06,-225.27"/>
<polygon fill="black" stroke="black" points="194.54,-222.79 185.3,-217.59 189.28,-227.41 194.54,-222.79"/>
</g>
<!-- node5 -->
<g id="node5" class="node">
<title>node5</title>
<polygon fill="lightblue" stroke="black" points="265.5,-127.5 265.5,-217.5 467.5,-217.5 467.5,-127.5 265.5,-127.5"/>
<text text-anchor="middle" x="327" y="-205.5" font-family="Times,serif" font-size="10.00">data_type:</text>
<text text-anchor="middle" x="327" y="-194.5" font-family="Times,serif" font-size="10.00"> OP</text>
<polyline fill="none" stroke="black" points="388.5,-187.5 388.5,-217.5 "/>
<text text-anchor="middle" x="428" y="-200" font-family="Times,serif" font-size="10.00">^</text>
<polyline fill="none" stroke="black" points="265.5,-187.5 467.5,-187.5 "/>
<text text-anchor="middle" x="366.5" y="-175.5" font-family="Times,serif" font-size="10.00">prev:</text>
<text text-anchor="middle" x="366.5" y="-164.5" font-family="Times,serif" font-size="10.00">0x606000000020</text>
<polyline fill="none" stroke="black" points="265.5,-157.5 467.5,-157.5 "/>
<text text-anchor="middle" x="316" y="-145.5" font-family="Times,serif" font-size="10.00">left:</text>
<text text-anchor="middle" x="316" y="-134.5" font-family="Times,serif" font-size="10.00">0x606000000200</text>
<polyline fill="none" stroke="black" points="366.5,-127.5 366.5,-157.5 "/>
<text text-anchor="middle" x="417" y="-145.5" font-family="Times,serif" font-size="10.00">right:</text>
<text text-anchor="middle" x="417" y="-134.5" font-family="Times,serif" font-size="10.00">0x606000000260</text>
</g>
<!-- node3&#45;&gt;node5 -->
<g id="edge6" class="edge">
<title>node3&#45;&gt;node5</title>
<path fill="none" stroke="black" d="M295.28,-254.43C303.58,-245 312.42,-234.96 320.94,-225.27"/>
<polygon fill="black" stroke="black" points="323.72,-227.41 327.7,-217.59 318.46,-222.79 323.72,-227.41"/>
</g>
<!-- node0 -->
<g id="node3" class="node">
<title>node0</title>
<polygon fill="lightblue" stroke="black" points="0,-0.5 0,-90.5 101,-90.5 101,-0.5 0,-0.5"/>
<text text-anchor="middle" x="37" y="-78.5" font-family="Times,serif" font-size="10.00">data_type:</text>
<text text-anchor="middle" x="37" y="-67.5" font-family="Times,serif" font-size="10.00"> VAR</text>
<polyline fill="none" stroke="black" points="74,-60.5 74,-90.5 "/>
<text text-anchor="middle" x="87.5" y="-73" font-family="Times,serif" font-size="10.00">x</text>
<polyline fill="none" stroke="black" points="0,-60.5 101,-60.5 "/>
<text text-anchor="middle" x="50.5" y="-48.5" font-family="Times,serif" font-size="10.00">prev:</text>
<text text-anchor="middle" x="50.5" y="-37.5" font-family="Times,serif" font-size="10.00">0x606000000080</text>
<polyline fill="none" stroke="black" points="0,-30.5 101,-30.5 "/>
<text text-anchor="middle" x="23.5" y="-18.5" font-family="Times,serif" font-size="10.00">left:</text>
<text text-anchor="middle" x="23.5" y="-7.5" font-family="Times,serif" font-size="10.00">(nil)</text>
<polyline fill="none" stroke="black" points="47,-0.5 47,-30.5 "/>
<text text-anchor="middle" x="74" y="-18.5" font-family="Times,serif" font-size="10.00">right:</text>
<text text-anchor="middle" x="74" y="-7.5" font-family="Times,serif" font-size="10.00">(nil)</text>
</g>
<!-- node1&#45;&gt;node0 -->
<g id="edge2" class="edge">
<title>node1&#45;&gt;node0</title>
<path fill="none" stroke="black" d="M112.65,-127.43C105.48,-118.09 97.85,-108.16 90.48,-98.56"/>
<polygon fill="black" stroke="black" points="93.23,-96.39 84.36,-90.59 87.68,-100.66 93.23,-96.39"/>
</g>
<!-- node2 -->
<g id="node4" class="node">
<title>node2</title>
<polygon fill="lightblue" stroke="black" points="119,-0.5 119,-90.5 220,-90.5 220,-0.5 119,-0.5"/>
<text text-anchor="middle" x="156" y="-78.5" font-family="Times,serif" font-size="10.00">data_type:</text>
<text text-anchor="middle" x="156" y="-67.5" font-family="Times,serif" font-size="10.00"> VAR</text>
<polyline fill="none" stroke="black" points="193,-60.5 193,-90.5 "/>
<text text-anchor="middle" x="206.5" y="-73" font-family="Times,serif" font-size="10.00">y</text>
<polyline fill="none" stroke="black" points="119,-60.5 220,-60.5 "/>
<text text-anchor="middle" x="169.5" y="-48.5" font-family="Times,serif" font-size="10.00">prev:</text>
<text text-anchor="middle" x="169.5" y="-37.5" font-family="Times,serif" font-size="10.00">0x606000000080</text>
<polyline fill="none" stroke="black" points="119,-30.5 220,-30.5 "/>
<text text-anchor="middle" x="142.5" y="-18.5" font-family="Times,serif" font-size="10.00">left:</text>
<text text-anchor="middle" x="142.5" y="-7.5" font-family="Times,serif" font-size="10.00">(nil)</text>
<polyline fill="none" stroke="black" points="166,-0.5 166,-30.5 "/>
<text text-anchor="middle" x="193" y="-18.5" font-family="Times,serif" font-size="10.00">right:</text>
<text text-anchor="middle" x="193" y="-7.5" font-family="Times,serif" font-size="10.00">(nil)</text>
</g>
<!-- node1&#45;&gt;node2 -->
<g id="edge3" class="edge">
<title>node1&#45;&gt;node2</title>
<path fill="none" stroke="black" d="M154.61,-127.43C156.21,-118.75 157.9,-109.54 159.55,-100.58"/>
<polygon fill="black" stroke="black" points="163.02,-101.06 161.39,-90.59 156.13,-99.8 163.02,-101.06"/>
</g>
<!-- node4 -->
<g id="node6" class="node">
<title>node4</title>
<polygon fill="lightblue" stroke="black" points="283,-0.5 283,-90.5 406,-90.5 406,-0.5 283,-0.5"/>
<text text-anchor="middle" x="318" y="-78.5" font-family="Times,serif" font-size="10.00">data_type:</text>
<text text-anchor="middle" x="318" y="-67.5" font-family="Times,serif" font-size="10.00"> VAR</text>
<polyline fill="none" stroke="black" points="353,-60.5 353,-90.5 "/>
<text text-anchor="middle" x="379.5" y="-73" font-family="Times,serif" font-size="10.00">AbObA</text>
<polyline fill="none" stroke="black" points="283,-60.5 406,-60.5 "/>
<text text-anchor="middle" x="344.5" y="-48.5" font-family="Times,serif" font-size="10.00">prev:</text>
<text text-anchor="middle" x="344.5" y="-37.5" font-family="Times,serif" font-size="10.00">0x6060000001a0</text>
<polyline fill="none" stroke="black" points="283,-30.5 406,-30.5 "/>
<text text-anchor="middle" x="312" y="-18.5" font-family="Times,serif" font-size="10.00">left:</text>
<text text-anchor="middle" x="312" y="-7.5" font-family="Times,serif" font-size="10.00">(nil)</text>
<polyline fill="none" stroke="black" points="341,-0.5 341,-30.5 "/>
<text text-anchor="middle" x="373.5" y="-18.5" font-family="Times,serif" font-size="10.00">right:</text>
<text text-anchor="middle" x="373.5" y="-7.5" font-family="Times,serif" font-size="10.00">(nil)</text>
</g>
<!-- node5&#45;&gt;node4 -->
<g id="edge4" class="edge">
<title>node5&#45;&gt;node4</title>
<path fill="none" stroke="black" d="M358.74,-127.43C357.22,-118.75 355.6,-109.54 354.02,-100.58"/>
<polygon fill="black" stroke="black" points="357.44,-99.84 352.26,-90.59 350.55,-101.05 357.44,-99.84"/>
</g>
<!-- node6 -->
<g id="node7" class="node">
<title>node6</title>
<polygon fill="lightblue" stroke="black" points="424,-0.5 424,-90.5 525,-90.5 525,-0.5 424,-0.5"/>
<text text-anchor="middle" x="461" y="-78.5" font-family="Times,serif" font-size="10.00">data_type:</text>
<text text-anchor="middle" x="461" y="-67.5" font-family="Times,serif" font-size="10.00"> VAR</text>
<polyline fill="none" stroke="black" points="498,-60.5 498,-90.5 "/>
<text text-anchor="middle" x="511.5" y="-73" font-family="Times,serif" font-size="10.00">z</text>
<polyline fill="none" stroke="black" points="424,-60.5 525,-60.5 "/>
<text text-anchor="middle" x="474.5" y="-48.5" font-family="Times,serif" font-size="10.00">prev:</text>
<text text-anchor="middle" x="474.5" y="-37.5" font-family="Times,serif" font-size="10.00">0x6060000001a0</text>
<polyline fill="none" stroke="black" points="424,-30.5 525,-30.5 "/>
<text text-anchor="middle" x="447.5" y="-18.5" font-family="Times,serif" font-size="10.00">left:</text>
<text text-anchor="middle" x="447.5" y="-7.5" font-family="Times,serif" font-size="10.00">(nil)</text>
<polyline fill="none" stroke="black" points="471,-0.5 471,-30.5 "/>
<text text-anchor="middle" x="498" y="-18.5" font-family="Times,serif" font-size="10.00">right:</text>
<text text-anchor="middle" x="498" y="-7.5" font-family="Times,serif" font-size="10.00">(nil)</text>
</g>
<!-- node5&#45;&gt;node6 -->
<g id="edge5" class="edge">
<title>node5&#45;&gt;node6</title>
<path fill="none" stroke="black" d="M404.58,-127.43C412.72,-118 421.4,-107.96 429.77,-98.27"/>
<polygon fill="black" stroke="black" points="432.51,-100.45 436.4,-90.59 427.22,-95.87 432.51,-100.45"/>
</g>
</g>
</svg>
